<svg width="60" height="59" viewBox="0 0 60 59" fill="none" xmlns="http://www.w3.org/2000/svg">
<g clip-path="url(#clip0_23_418)">
<g clip-path="url(#clip1_23_418)">
<g clip-path="url(#clip2_23_418)">
<mask id="mask0_23_418" style="mask-type:luminance" maskUnits="userSpaceOnUse" x="0" y="0" width="60" height="59">
<path d="M59.67 0H0.669998V59H59.67V0Z" fill="white"/>
</mask>
<g mask="url(#mask0_23_418)">
<path d="M59.67 29.5C59.67 13.2076 46.4624 0 30.17 0C13.8776 0 0.669998 13.2076 0.669998 29.5C0.669998 45.7924 13.8776 59 30.17 59C46.4624 59 59.67 45.7924 59.67 29.5Z" fill="#304F8C" fill-opacity="0.1"/>
</g>
<path d="M22.67 20.575H22.67H20.795C20.5828 20.575 20.3793 20.6593 20.2293 20.8093C20.0793 20.9593 19.995 21.1628 19.995 21.375C19.995 21.5872 20.0793 21.7907 20.2293 21.9407C20.3793 22.0907 20.5828 22.175 20.795 22.175H22.0457L22.5114 24.0461L24.3842 34.0222C24.3842 34.0222 24.3842 34.0223 24.3843 34.0223C24.4186 34.2056 24.5159 34.3711 24.6593 34.4903C24.7853 34.595 24.94 34.6582 25.1023 34.6721C24.894 34.79 24.7007 34.9363 24.5285 35.1085C24.0268 35.6101 23.745 36.2905 23.745 37C23.745 37.7095 24.0268 38.3899 24.5285 38.8915C25.0301 39.3932 25.7105 39.675 26.42 39.675C27.1295 39.675 27.8098 39.3932 28.3115 38.8915C28.8132 38.3899 29.095 37.7095 29.095 37C29.095 36.2905 28.8132 35.6101 28.3115 35.1085C28.1407 34.9377 27.9492 34.7924 27.7429 34.675H33.8471C33.6408 34.7924 33.4493 34.9377 33.2785 35.1085C32.7768 35.6101 32.495 36.2905 32.495 37C32.495 37.7095 32.7768 38.3899 33.2785 38.8915C33.7801 39.3932 34.4605 39.675 35.17 39.675C35.8795 39.675 36.5598 39.3932 37.0615 38.8915C37.5632 38.3899 37.845 37.7095 37.845 37C37.845 36.2905 37.5632 35.6101 37.0615 35.1085C36.8893 34.9363 36.6961 34.79 36.4878 34.6721C36.6751 34.6562 36.8517 34.5746 36.9857 34.4407C37.1357 34.2907 37.22 34.0872 37.22 33.875C37.22 33.6628 37.1357 33.4593 36.9857 33.3093C36.8357 33.1593 36.6322 33.075 36.42 33.075H25.834L25.539 31.5035L37.085 30.9235L37.0851 30.9235C37.2628 30.9145 37.4324 30.8466 37.5672 30.7304C37.7019 30.6142 37.7941 30.4564 37.8291 30.2819L37.8291 30.2818L39.0791 24.0318L39.0791 24.0318C39.1023 23.9158 39.0995 23.7961 39.0708 23.6813C39.0422 23.5665 38.9884 23.4595 38.9134 23.368C38.8384 23.2764 38.7441 23.2027 38.6372 23.152C38.5302 23.1014 38.4134 23.0751 38.2951 23.075H38.295H23.9192L23.446 21.1814C23.446 21.1814 23.446 21.1814 23.446 21.1813C23.4028 21.0082 23.303 20.8545 23.1624 20.7446C23.0218 20.6348 22.8485 20.575 22.67 20.575ZM25.2413 29.9163L24.2584 24.675H37.319L36.3826 29.3571L25.2413 29.9163ZM26.42 35.925C26.7051 35.925 26.9785 36.0383 27.1801 36.2399C27.3817 36.4415 27.495 36.7149 27.495 37C27.495 37.2851 27.3817 37.5585 27.1801 37.7601C26.9785 37.9617 26.7051 38.075 26.42 38.075C26.1349 38.075 25.8615 37.9617 25.6599 37.7601C25.4583 37.5585 25.345 37.2851 25.345 37C25.345 36.7149 25.4583 36.4415 25.6599 36.2399C25.8615 36.0383 26.1349 35.925 26.42 35.925ZM35.17 35.925C35.4551 35.925 35.7285 36.0383 35.9301 36.2399C36.1317 36.4415 36.245 36.7149 36.245 37C36.245 37.2851 36.1317 37.5585 35.9301 37.7601C35.7285 37.9617 35.4551 38.075 35.17 38.075C34.8849 38.075 34.6115 37.9617 34.4099 37.7601C34.2083 37.5585 34.095 37.2851 34.095 37C34.095 36.7149 34.2083 36.4415 34.4099 36.2399C34.6115 36.0383 34.8849 35.925 35.17 35.925Z" fill="#4C5D73" stroke="#4C5D73" stroke-width="0.35"/>
</g>
</g>
</g>
<defs>
<clipPath id="clip0_23_418">
<rect width="59" height="59" fill="white" transform="translate(0.669998)"/>
</clipPath>
<clipPath id="clip1_23_418">
<rect width="59" height="59" fill="white" transform="translate(0.669998)"/>
</clipPath>
<clipPath id="clip2_23_418">
<rect width="59" height="59" fill="white" transform="translate(0.669998)"/>
</clipPath>
</defs>
</svg>
