<svg width="59" height="59" viewBox="0 0 59 59" fill="none" xmlns="http://www.w3.org/2000/svg">
<path d="M59 29.5C59 13.2076 45.7924 0 29.5 0C13.2076 0 0 13.2076 0 29.5C0 45.7924 13.2076 59 29.5 59C45.7924 59 59 45.7924 59 29.5Z" fill="#304F8C" fill-opacity="0.1"/>
<path d="M24.1725 33.4675C24.2087 33.6606 24.3111 33.835 24.4622 33.9605C24.6133 34.086 24.8034 34.1548 24.9999 34.155H25H25.0692C24.795 34.293 24.542 34.4747 24.3209 34.6959C23.7761 35.2406 23.47 35.9795 23.47 36.75C23.47 37.5205 23.7761 38.2594 24.3209 38.8041C24.8656 39.3489 25.6045 39.655 26.375 39.655C27.1455 39.655 27.8844 39.3489 28.4291 38.8041C28.9739 38.2594 29.28 37.5205 29.28 36.75C29.28 35.9795 28.9739 35.2406 28.4291 34.6959C28.208 34.4747 27.955 34.293 27.6808 34.155H34.6942C34.42 34.293 34.167 34.4747 33.9459 34.6959C33.4011 35.2406 33.095 35.9795 33.095 36.75C33.095 37.5205 33.4011 38.2594 33.9459 38.8041C34.4906 39.3489 35.2295 39.655 36 39.655C36.7705 39.655 37.5094 39.3489 38.0541 38.8041C38.5989 38.2594 38.905 37.5205 38.905 36.75C38.905 35.9795 38.5989 35.2406 38.0541 34.6959C37.833 34.4747 37.58 34.293 37.3058 34.155H37.375H37.3751C37.5716 34.1548 37.7617 34.086 37.9128 33.9605C38.0639 33.835 38.1663 33.6606 38.2025 33.4676C38.2025 33.4675 38.2025 33.4675 38.2025 33.4675L40.265 22.4676L40.265 22.4675C40.2877 22.3459 40.2834 22.2208 40.2524 22.1011C40.2214 21.9813 40.1643 21.8699 40.0853 21.7747C40.0064 21.6794 39.9074 21.6028 39.7955 21.5501C39.6835 21.4975 39.5613 21.4701 39.4376 21.47H39.4375H23.5948L23.0673 19.3586C23.0673 19.3586 23.0673 19.3586 23.0673 19.3586C23.0218 19.1762 22.9166 19.0144 22.7686 18.8987C22.6205 18.7829 22.438 18.7201 22.25 18.72H22.25L24.3249 33.439M24.1725 33.4675L24.3249 33.439M24.1725 33.4675L24.1725 33.4676L24.3249 33.439M24.1725 33.4675L22.1122 22.4927M24.3249 33.439L22.2638 22.4596M22.1122 22.4927L22.1133 22.4971L22.2638 22.4596M22.1122 22.4927L22.1114 22.4882L22.2638 22.4596M22.1122 22.4927L22.2638 22.4596M21.5926 20.405H21.7138V20.25L21.5633 20.2874L21.5926 20.405ZM25.6993 32.47L23.952 23.155H38.423L36.6757 32.47H25.6993ZM26.375 35.53C26.6986 35.53 27.0089 35.6585 27.2377 35.8873C27.4665 36.1161 27.595 36.4264 27.595 36.75C27.595 37.0736 27.4665 37.3839 27.2377 37.6127C27.0089 37.8415 26.6986 37.97 26.375 37.97C26.0514 37.97 25.7411 37.8415 25.5123 37.6127C25.2835 37.3839 25.155 37.0736 25.155 36.75C25.155 36.4264 25.2835 36.1161 25.5123 35.8873C25.7411 35.6585 26.0514 35.53 26.375 35.53ZM36 35.53C36.3236 35.53 36.6339 35.6585 36.8627 35.8873C37.0915 36.1161 37.22 36.4264 37.22 36.75C37.22 37.0736 37.0915 37.3839 36.8627 37.6127C36.6339 37.8415 36.3236 37.97 36 37.97C35.6764 37.97 35.3661 37.8415 35.1373 37.6127C34.9085 37.3839 34.78 37.0736 34.78 36.75C34.78 36.4264 34.9085 36.1161 35.1373 35.8873C35.3661 35.6585 35.6764 35.53 36 35.53Z" fill="#4C5D73" stroke="#4C5D73" stroke-width="0.31"/>
</svg>
