<svg width="59" height="59" viewBox="0 0 59 59" fill="none" xmlns="http://www.w3.org/2000/svg">
<g clip-path="url(#clip0_25_129)">
<path d="M59 29.5C59 13.2076 45.7924 0 29.5 0C13.2076 0 0 13.2076 0 29.5C0 45.7924 13.2076 59 29.5 59C45.7924 59 59 45.7924 59 29.5Z" fill="#304F8C" fill-opacity="0.1"/>
<path d="M18.5 30V35C18.5 35.2652 18.6054 35.5196 18.7929 35.7071C18.9804 35.8946 19.2348 36 19.5 36H20.5C20.5 36.7956 20.8161 37.5587 21.3787 38.1213C21.9413 38.6839 22.7044 39 23.5 39C24.2956 39 25.0587 38.6839 25.6213 38.1213C26.1839 37.5587 26.5 36.7956 26.5 36H32.5C32.5 36.7956 32.8161 37.5587 33.3787 38.1213C33.9413 38.6839 34.7044 39 35.5 39C36.2956 39 37.0587 38.6839 37.6213 38.1213C38.1839 37.5587 38.5 36.7956 38.5 36H39.5C39.7652 36 40.0196 35.8946 40.2071 35.7071C40.3946 35.5196 40.5 35.2652 40.5 35V23C40.5 22.2044 40.1839 21.4413 39.6213 20.8787C39.0587 20.3161 38.2956 20 37.5 20H28.5C27.7044 20 26.9413 20.3161 26.3787 20.8787C25.8161 21.4413 25.5 22.2044 25.5 23V25H23.5C23.0343 25 22.5749 25.1084 22.1584 25.3167C21.7418 25.525 21.3794 25.8274 21.1 26.2L18.7 29.4C18.6708 29.4435 18.6472 29.4905 18.63 29.54L18.57 29.65C18.5259 29.7615 18.5022 29.8801 18.5 30ZM34.5 36C34.5 35.8022 34.5586 35.6089 34.6685 35.4444C34.7784 35.28 34.9346 35.1518 35.1173 35.0761C35.3 35.0004 35.5011 34.9806 35.6951 35.0192C35.8891 35.0578 36.0673 35.153 36.2071 35.2929C36.347 35.4327 36.4422 35.6109 36.4808 35.8049C36.5194 35.9989 36.4996 36.2 36.4239 36.3827C36.3482 36.5654 36.22 36.7216 36.0556 36.8315C35.8911 36.9414 35.6978 37 35.5 37C35.2348 37 34.9804 36.8946 34.7929 36.7071C34.6054 36.5196 34.5 36.2652 34.5 36ZM27.5 23C27.5 22.7348 27.6054 22.4804 27.7929 22.2929C27.9804 22.1054 28.2348 22 28.5 22H37.5C37.7652 22 38.0196 22.1054 38.2071 22.2929C38.3946 22.4804 38.5 22.7348 38.5 23V34H37.72C37.4388 33.6906 37.0961 33.4435 36.7138 33.2743C36.3315 33.1052 35.918 33.0178 35.5 33.0178C35.082 33.0178 34.6685 33.1052 34.2862 33.2743C33.9039 33.4435 33.5612 33.6906 33.28 34H27.5V23ZM25.5 29H21.5L22.7 27.4C22.7931 27.2758 22.9139 27.175 23.0528 27.1056C23.1916 27.0361 23.3448 27 23.5 27H25.5V29ZM22.5 36C22.5 35.8022 22.5586 35.6089 22.6685 35.4444C22.7784 35.28 22.9346 35.1518 23.1173 35.0761C23.3 35.0004 23.5011 34.9806 23.6951 35.0192C23.8891 35.0578 24.0673 35.153 24.2071 35.2929C24.347 35.4327 24.4422 35.6109 24.4808 35.8049C24.5194 35.9989 24.4996 36.2 24.4239 36.3827C24.3482 36.5654 24.22 36.7216 24.0556 36.8315C23.8911 36.9414 23.6978 37 23.5 37C23.2348 37 22.9804 36.8946 22.7929 36.7071C22.6054 36.5196 22.5 36.2652 22.5 36ZM20.5 31H25.5V33.78C24.9098 33.2526 24.1351 32.9797 23.3447 33.0209C22.5543 33.0621 21.8121 33.414 21.28 34H20.5V31Z" fill="#4C5D73"/>
</g>
<defs>
<clipPath id="clip0_25_129">
<rect width="59" height="59" fill="white"/>
</clipPath>
</defs>
</svg>
