<?xml version="1.0" encoding="utf-8"?>
<svg viewBox="0 0 20 20" xmlns="http://www.w3.org/2000/svg">
  <g id="Symbols" stroke="none" stroke-width="1" fill="none" fill-rule="evenodd">
    <g id="icon/cart" transform="translate(-2.000000, -2.000000)" fill="#3D3C3C">
      <path d="M16.55,13 C17.3,13 17.96,12.59 18.3,11.97 L21.88,5.48 C22.25,4.82 21.77,4 21.01,4 L6.21,4 L5.27,2 L2,2 L2,4 L4,4 L7.6,11.59 L6.25,14.03 C5.52,15.37 6.48,17 8,17 L20,17 L20,15 L8,15 L9.1,13 L16.55,13 Z M7.16,6 L19.31,6 L16.55,11 L9.53,11 L7.16,6 Z M8,18 C6.9,18 6.01,18.9 6.01,20 C6.01,21.1 6.9,22 8,22 C9.1,22 10,21.1 10,20 C10,18.9 9.1,18 8,18 Z M18,18 C16.9,18 16.01,18.9 16.01,20 C16.01,21.1 16.9,22 18,22 C19.1,22 20,21.1 20,20 C20,18.9 19.1,18 18,18 Z" id="Shape" style="fill: rgb(255, 255, 255);"/>
    </g>
  </g>
</svg>