<svg width="253" height="64" viewBox="0 0 253 64" fill="none" xmlns="http://www.w3.org/2000/svg">
<path d="M31.8196 6.08057L21.8637 16.0842H37.706V32L47.662 21.9964V6.08057H31.8196ZM37.706 32V47.9159H21.8637L31.8196 57.9195H47.662V42.0037L37.706 32ZM37.706 32L21.8637 16.0842V47.9159L37.706 32ZM21.8637 47.9159L6.02129 32V47.9159H21.8637ZM6.02129 32L21.8637 16.0842H6.02129V32Z" fill="#E31A2F"/>
<path d="M58.2278 14.3193H64.1141V49.6881H58.2278V14.3193Z" fill="#231F20"/>
<path d="M71.6046 31.0889L82.888 14.3193H76.0566L64.5576 31.098L77.6069 49.6881H84.9897L71.6046 31.0889Z" fill="#231F20"/>
<path d="M227.653 49.6881H246.979V18.4447C246.979 16.1644 245.142 14.3193 242.875 14.3193H224.275V19.695H241.088V28.9673L227.653 28.9677C225.382 28.9677 223.545 30.8144 223.545 33.0943V45.5611C223.545 47.8405 225.386 49.6881 227.653 49.6881ZM229.436 34.3437H241.088V44.3116H229.436V34.3437Z" fill="#231F20"/>
<path d="M214.745 14.3193C217.013 14.3193 218.853 16.1644 218.853 18.4447V30.0647C218.853 32.3433 217.013 34.1905 214.745 34.1905C214.745 34.1905 213.083 34.1905 212.366 34.1905L220.913 49.6881H214.459L203.043 28.9673C203.043 28.9673 212.362 28.9673 212.963 28.9673V19.695H201.074V49.6881H195.184V14.3193H214.745Z" fill="#231F20"/>
<path d="M168.981 18.4442C168.981 16.1644 170.818 14.3193 173.085 14.3193H190.197V19.695H174.872V28.9673H189.674V34.3437H174.872V44.3116H190.197V49.6881H173.085C170.818 49.6881 168.981 47.8405 168.981 45.5611V18.4442Z" fill="#231F20"/>
<path d="M143.587 18.4442C143.587 16.1644 145.428 14.3193 147.695 14.3193H164.562V19.695H149.482V44.3116H164.562V49.6881H147.695C145.428 49.6881 143.587 47.8405 143.587 45.5611V18.4442Z" fill="#231F20"/>
<path d="M114.118 18.4447C114.118 16.1644 115.955 14.3193 118.222 14.3193H134.356C136.623 14.3193 138.46 16.1644 138.46 18.4451V45.5619C138.46 47.8405 136.623 49.6881 134.352 49.6881H118.222C115.955 49.6881 114.118 47.8405 114.118 45.5611V18.4447ZM120.005 44.3116H132.569V19.695H120.005V44.3116Z" fill="#231F20"/>
<path d="M86.0094 30.6878V14.3193H91.8998C91.8998 14.3193 91.8998 28.8186 91.8998 29.4396H103.096V14.3193H108.987V45.5619C108.987 47.8405 107.146 49.6881 104.879 49.6881L87.4271 49.6897V44.3116C87.4271 44.3116 102.479 44.3149 103.096 44.3149V34.8148C102.483 34.8148 90.1132 34.8148 90.1132 34.8148C87.8457 34.8148 86.0094 32.9673 86.0094 30.6878Z" fill="#231F20"/>
</svg>
