<svg width="190" height="30" viewBox="0 0 190 30" fill="none" xmlns="http://www.w3.org/2000/svg">
<g clip-path="url(#clip0_37_296)">
<path d="M0 29V0H12.26C16.3959 0.0439549 20.384 0.260102 23.1536 3.94921C23.9291 4.98964 25 6.90197 25 10.1112C25 14.1483 23.2275 16.5772 22.0089 17.7092C19.8301 19.8743 16.9129 20.0941 14.0325 20.226H8.67799V29H0ZM12.0015 13.4999C13.4417 13.4632 15.0665 13.3863 16.1004 12.3422C16.3959 12.0345 16.8759 11.4154 16.8759 10.4079C16.839 9.40778 16.3959 8.78499 16.1374 8.47726C14.8818 7.12544 12.8508 7.2793 11.1891 7.2793H8.78877V13.4999H12.0015Z" fill="#175AA7"/>
<path d="M38.3874 29.3683L38.0596 27.3867C36.9669 28.2703 34.9636 30 31.3576 30C30.7384 30 28.043 29.9135 26.1854 28.3155C25.3841 27.5973 24 25.8676 24 23.0062C24 22.3293 24.1821 21.1787 25.2384 19.7461C26.7318 17.6818 28.5165 17.1216 30.8113 16.5688L34.6722 16.0725C35.1093 15.9446 35.5828 15.8205 36.0927 15.7378C36.202 15.6927 36.8212 15.6062 37.149 15.3543C37.4768 15.1024 37.7318 14.1322 37.7318 13.666C37.7318 12.8237 36.6755 12.1356 35.0364 12.1356C33.5795 12.1356 32.8874 12.6808 32.5232 13.2298C32.3411 13.5231 32.2682 13.775 32.2318 14.4519L24.9106 14.4067C25.2384 12.6808 25.5662 11.2896 26.7682 9.85698C28.2616 8.12732 30.6291 7.03312 35.255 7.03312C36.1291 7.03312 39.6987 6.65335 42.3212 8.46573C43.3775 9.18392 44.0695 10.0299 44.543 11.1655C45.3444 12.9365 45.1258 15.0798 45.1258 16.9373V22.8783C45.0894 26.5858 45.3444 27.2589 46 29.3683H38.3874ZM37.6225 19.81C36.5662 20.1898 35.4735 20.5282 34.3808 20.908L33.5795 21.1599C33.1788 21.2427 31.9404 21.5209 31.9404 23.1227C31.9404 23.8409 32.3411 25.1457 33.9437 25.1457C34.1622 25.1457 35.1457 25.0479 35.6556 24.8787C37.1126 24.4576 37.2219 23.4799 37.6225 23.055V19.81Z" fill="#175AA7"/>
<path d="M60.9346 28.9926V18.5652C60.9346 19.8073 61.2754 14.4932 60.1394 13.9689C59.7608 13.7867 59.0413 13.426 58.1704 13.4446C57.1859 13.4632 56.0878 13.9317 55.7091 14.7907C55.2926 15.8394 55.1411 16.8026 55.179 18.9855V29H47V7.4165H54.7246L54.8382 9.92292C55.8985 8.6474 57.148 7 61.6919 7C65.0241 7 67.5611 8.14165 68.5835 11.455C68.8107 12.2918 68.9243 13.1024 69 14.8205V28.9926H60.9346Z" fill="#175AA7"/>
<path d="M105.287 13.852C105.138 13.0172 104.542 11.6347 102.495 11.6347C101.602 11.6347 100.932 11.8803 100.597 12.0918C100.411 12.1711 100.113 12.7188 100.113 13.3459C100.113 13.5121 100.262 14.0107 100.746 14.3053C101.044 14.4753 101.751 14.683 102.57 14.7775L105.733 15.6122C107.966 16.1864 109.902 16.5906 111.465 18.177C112.246 18.9287 112.656 19.9032 112.767 20.2999C113.14 21.433 112.953 22.3207 112.953 22.6984C112.953 25.2821 111.725 26.8384 111.018 27.5069C109.492 28.9272 107.073 29.9999 102.644 29.9999C98.9597 29.9999 96.6522 29.0178 95.2751 28.2057C92.335 26.4757 92.1861 23.2915 92 22.2905L99.6668 22.264C99.7413 23.0157 99.8529 23.5785 100.448 24.1187C100.932 24.5795 101.453 24.8968 102.83 24.8968C104.468 24.8968 105.398 24.096 105.436 23.367C105.473 23.2801 105.473 22.6947 105.249 22.4038C104.877 21.7768 103.872 21.5124 102.421 21.1346C102.421 21.1346 97.9548 20.1601 97.6199 19.9977C96.615 19.5293 92.5583 18.6038 92.5583 14.0107C92.5583 11.427 93.8609 10.0483 94.6052 9.33816C95.9823 8.12564 98.2525 6.99995 102.309 6.99995C103.202 6.99995 106.999 6.95846 109.827 8.92266C110.609 9.4628 111.241 10.1314 111.725 10.9246C112.395 12.0502 112.507 13.395 112.581 13.852H105.287Z" fill="#175AA7"/>
<path d="M133.115 26.9065C131.821 28.2441 129.159 30 124.759 30C123.354 30 119.472 29.9171 116.625 26.4883C115.442 25.0263 114 22.5998 114 18.2478C114 17.4943 114 15.7799 114.702 13.8997C116.292 9.13323 120.618 6.95914 125.166 7.00058C126.386 7.00058 130.195 7.12492 132.931 9.96971C134.299 11.3902 136.036 13.9826 135.999 18.5832C135.999 19.7098 135.925 23.9789 133.115 26.9065ZM127.2 13.7037C126.497 13.033 125.425 12.8974 125.055 12.8974C124.131 12.8974 123.465 13.4437 123.243 13.6095C122.282 14.4046 121.58 15.6141 121.58 18.3307C121.58 20.4634 122.06 24.0316 125.018 24.0316C125.869 24.0316 126.682 23.8055 127.2 23.1801C127.902 22.385 128.642 20.9494 128.605 18.44C128.605 18.3157 128.642 15.2071 127.2 13.7037Z" fill="#175AA7"/>
<path d="M159 7.84412H167V29H159V7.84412ZM159 0H167V5.50394H159V0Z" fill="#175AA7"/>
<path d="M182.319 16.4335C181.722 13.8779 180.454 13.7501 179.037 13.7501C177.881 13.7501 177.508 14.1334 177.136 14.451C176.129 15.2907 175.793 16.3312 175.793 18.927C175.793 19.1241 175.681 22.5924 177.62 23.9104C178.18 24.2718 178.441 24.2937 179.112 24.2937C179.336 24.2937 180.007 24.3156 180.603 24.0382C181.386 23.6804 182.207 23.0232 182.356 21.2234L190 21.1613C189.925 21.6432 189.627 23.3409 188.881 24.7391C186.98 28.452 183.102 30 179.186 30C177.583 30 176.464 29.7627 175.793 29.6422C172.698 28.8828 169.976 26.7653 168.783 23.7315C168.447 22.8151 168 21.4169 168 19.0986C168 18.1421 168.037 15.6668 169.417 13.1915C169.603 12.7936 170.237 11.7932 171.132 10.8769C174.041 8.08032 178.366 8 179.41 8C183.437 8 185.936 9.47859 187.166 10.5958C187.539 10.9572 188.285 11.921 188.881 13.239C189.366 14.316 189.627 15.2761 189.814 16.4335H182.319Z" fill="#175AA7"/>
<path d="M91.1273 23.0169V17.0902C91.1273 15.2374 91.1273 12.7457 90.3636 10.9793C89.8545 9.8406 89.4909 9.20922 88.4364 8.49516C85.8182 6.6837 81.9636 7.02569 81.0909 7.02569C76.4727 7.02569 74.1091 8.2847 72.6182 10.0135C71.4182 11.4454 71.1636 12.8472 70.8364 14.576H78.1455C78.1818 13.8995 78.2909 13.6477 78.4364 13.3508C78.8364 12.8058 79.4182 12.1181 80.8727 12.1181C82.5091 12.1181 83.5636 12.9787 83.5636 13.8206C83.5636 14.2828 83.5273 15.0382 83.2 15.29C82.8727 15.5456 82.0364 15.8462 81.8909 15.8876C81.5273 15.9515 81.0545 16.0642 80.4727 16.2221L76.6545 16.7219C74.3636 17.2706 72.5818 17.7517 71.0909 19.8149C70 21.2468 70 22.5547 70 23.2274C70 26.0912 71.2 27.7448 72 28.4626C73.8545 30.0598 76.5091 29.9997 77.1636 29.9997C80.7636 29.9997 82.6545 28.3649 83.7818 27.4817L84.1091 29.5487H92C91.5636 28.1168 91.0909 27.3689 91.1273 23.0169ZM81.4909 25.0276C80.9818 25.1967 80.1091 25.1591 79.8909 25.1478C78.5818 25.0576 77.8909 23.8249 77.8909 23.1071C77.8909 21.5061 79.1273 21.2468 79.5273 21.1641L80.3636 20.9236C81.4182 20.544 82.5091 20.2246 83.5636 19.845L83.6 22.6298C83.2727 23.2575 82.9091 24.6067 81.4909 25.0276Z" fill="#175AA7"/>
<path d="M150.275 28.9592V18.4808C150.275 19.721 150.637 14.4819 149.549 13.9546C149.187 13.7801 148.497 13.4162 147.699 13.4348C146.756 13.4533 145.668 13.9212 145.342 14.7789C144.907 15.826 144.689 16.5389 144.725 18.7148L144.653 29L137 28.9666V7.41586H144.363L144.471 9.91849C145.487 8.6449 146.684 7 151.073 7C154.228 7 156.658 8.37384 157.637 11.6822C157.855 12.5176 157.891 13.0635 158 14.7789V28.9666L150.275 28.9592Z" fill="#175AA7"/>
</g>
<defs>
<clipPath id="clip0_37_296">
<rect width="190" height="30" fill="white"/>
</clipPath>
</defs>
</svg>
