<svg width="143" height="25" viewBox="0 0 143 25" fill="none" xmlns="http://www.w3.org/2000/svg">
<g clip-path="url(#clip0_37_289)">
<path d="M140.327 19.0004C139.43 18.9835 138.594 19.4562 138.14 20.2365C137.687 21.0168 137.687 21.9832 138.14 22.7635C138.594 23.5438 139.43 24.0165 140.327 23.9996C140.985 23.9989 141.615 23.7343 142.079 23.2643C142.543 22.7942 142.803 22.1574 142.8 21.4943C142.8 20.833 142.54 20.1986 142.076 19.7309C141.612 19.2632 140.983 19.0004 140.327 19.0004ZM140.327 23.6989C139.747 23.6996 139.191 23.4674 138.781 23.0536C138.372 22.6398 138.143 22.0786 138.146 21.4943C138.146 20.9119 138.376 20.3534 138.785 19.9422C139.194 19.5309 139.749 19.3006 140.327 19.302C140.903 19.302 141.457 19.533 141.864 19.9442C142.272 20.3553 142.501 20.9129 142.501 21.4943C142.504 22.0776 142.276 22.6379 141.868 23.0516C141.46 23.4653 140.905 23.6982 140.327 23.6989Z" fill="black"/>
<path d="M140.392 20.1503C140.597 20.1503 140.8 20.161 140.983 20.2698C141.164 20.3733 141.255 20.5901 141.255 20.7963C141.255 21.2767 140.921 21.4537 140.489 21.466L141.221 22.5924H140.869L140.177 21.466H139.631V22.5924H139.335V20.1503H140.392ZM140.323 20.3672H139.631V21.2307H140.085C140.425 21.2307 140.955 21.2882 140.954 20.7909C140.954 20.4131 140.624 20.3672 140.323 20.3672ZM127.428 9.98973L131.862 5.21976C132.119 4.86958 132.247 4.62438 132.247 4.41442C132.247 4.06424 131.948 3.92402 131.008 3.92402H129.889V0.912616H142V3.92402H140.409C138.571 3.92402 138.23 4.2037 135.665 7.46031L128.65 15.0923V19.7496C128.65 20.9411 129.247 21.3603 130.957 21.3603H133.606V24.2659H116.643V21.3603H119.291C121 21.3603 121.598 20.9411 121.598 19.7496V15.0923L113.335 5.88411C111.97 4.2742 112.159 3.92402 108.357 3.92402V0.912616H123.697V3.92402H122.605C121.494 3.92402 121.023 4.13397 121.023 4.55388C121.023 4.90483 121.365 5.18452 121.578 5.4642L125.759 10.0541C126.256 10.5744 126.862 10.6418 127.428 9.98973ZM24.5002 0.911849H28.2007V9.31466H24.7832C24.4804 7.63502 23.4368 6.9814 22.4853 6.1002C20.7685 4.51097 17.0505 3.18764 13.9235 3.18764C9.88755 3.18764 6.48141 4.44891 6.48141 6.30326C6.48141 11.451 29.563 7.35456 29.563 17.0876C29.563 22.1641 24.6189 25 15.7399 25C12.6662 25 8.01486 24.0391 5.27047 22.571C4.41019 22.0706 4.04508 23.0445 3.88383 24.2652H0.0897555V15.5819H3.52176C4.2786 17.788 5.32143 18.2424 6.2806 19.1182C7.94488 20.6591 11.9063 21.7802 15.5391 21.7442C21.0165 21.6898 22.8998 20.4837 22.8998 18.7328C22.8998 16.9826 21.037 16.5619 15.0348 15.6171L9.93852 14.7766C4.18732 13.9007 0 12.6057 0 7.98443C0 3.18764 5.29709 0.17624 13.6725 0.17624C17.2019 0.17624 20.1547 0.651321 22.9888 2.26506C23.7738 2.77923 24.5101 2.84053 24.5002 0.911849ZM96.7184 14.9804L96.7914 5.64121C96.7914 4.41596 96.1585 3.99605 94.3505 3.99605H92.226V1.09039H105.743V3.99605H103.981C102.171 3.99605 101.539 4.41672 101.539 5.64121V24.4429L96.2483 24.4008L79.1156 8.05722V19.9266C79.1156 21.1174 79.7485 21.5718 81.5565 21.5718H83.9084V24.4429H69.8708V21.5718H72.1969C74.0049 21.5718 74.6378 21.1166 74.6378 19.9266V5.64121C74.6378 4.41596 74.0049 3.99605 72.1969 3.99605H69.8708V1.09039H82.0076L96.7184 14.9804ZM51.4428 0C40.6706 0 33.9276 4.79755 33.9276 12.4992C33.9276 20.063 40.5771 24.8238 51.1142 24.8238C62.3063 24.8238 68.8166 20.1327 68.8166 12.1146C68.8173 4.90253 61.7921 0 51.4428 0ZM51.1979 21.7786C45.2352 21.7786 41.8078 18.3121 41.8078 12.3245C41.8078 6.47796 45.3843 3.0114 51.4961 3.0114C57.3591 3.0114 60.7865 6.54846 60.7865 12.5705C60.7865 18.4523 57.3089 21.7786 51.1979 21.7786Z" fill="black"/>
</g>
<defs>
<clipPath id="clip0_37_289">
<rect width="143" height="25" fill="white"/>
</clipPath>
</defs>
</svg>
