<?xml version="1.0" encoding="UTF-8"?>
<svg width="142px" height="30px" viewBox="0 0 142 30" version="1.1" xmlns="http://www.w3.org/2000/svg" xmlns:xlink="http://www.w3.org/1999/xlink">
    <title>Group 12</title>
    <g id="Designs" stroke="none" stroke-width="1" fill="none" fill-rule="evenodd">
        <g id="Desktop" transform="translate(-223.000000, -1466.000000)" fill="#CB0602">
            <g id="brands" transform="translate(223.000000, 1401.000000)">
                <g id="Group-12" transform="translate(0.000000, 65.000000)">
                    <path d="M47.8974166,26.477672 C45.523702,26.477672 43.5994482,24.4907596 43.5994482,22.033659 C43.5994482,19.5800064 45.523702,17.5910978 47.8974166,17.5910978 C50.2711312,17.5910978 52.1971407,19.5800064 52.1971407,22.033659 C52.1971407,24.4907596 50.2711312,26.477672 47.8974166,26.477672 M63,29.4428878 L58.048909,10.3522691 C57.2535741,7.26728318 54.5357412,5 51.2999749,5 C50.4607474,5 49.6566341,5.15497517 48.910459,5.43534595 L38.2515676,9.44147237 L49.2141961,9.44147237 L51.0875345,16.6728608 C49.2703787,15.0563282 46.903687,14.0725806 44.3122649,14.0725806 C39.1662904,14.0725806 35,17.6368282 35,22.033659 C35,26.4304898 39.1662904,30 44.3122649,30 C48.0168046,30 51.2929521,28.1254174 53.3137698,25.2454923 L54.4005518,29.4428878 L63,29.4428878" id="Fill-4"></path>
                    <path d="M82.7587733,5 C82.1179738,5 81.5118121,5.14576883 80.9714623,5.40683403 L74.2203799,8.6440425 C73.8862982,6.57619228 72.1403793,5 70.0345737,5 C69.397238,5 68.7893444,5.14576883 68.242067,5.40683403 L60,9.35845232 L65.7949057,9.35845232 L65.7949057,29 L74.2775322,29 L74.2775322,11.5435591 C74.2775322,10.3390952 75.2250496,9.35863052 76.3990981,9.35863052 C77.5665655,9.35863052 78.520664,10.3390952 78.520664,11.5435591 L78.520664,29 L87,29 L87,9.35845232 C87,6.94970263 85.1002893,5 82.7587733,5" id="Fill-6"></path>
                    <path d="M104.021802,8.79378203 C103.628829,7.32290758 102.117297,6.44978988 100.647027,6.84517073 C99.1785586,7.2389297 98.3010811,8.75179309 98.6954955,10.2224873 L102.981982,26.2065784 C103.378559,27.6788945 104.886667,28.5511112 106.356937,28.1618575 C107.827207,27.7635932 108.701081,26.2516309 108.306306,24.7811169 L104.021802,8.79378203 Z M116,17.5004505 C116,24.4044779 110.405586,30 103.504685,30 C96.5983784,30 91,24.4044779 91,17.5004505 C91,10.5982253 96.5983784,5 103.504685,5 C110.405586,5 116,10.5984055 116,17.5004505 L116,17.5004505 Z" id="Fill-8"></path>
                    <path d="M137.760631,5 C137.118145,5 136.508736,5.14576883 135.959765,5.40683403 L129.216086,8.6440425 C128.883587,6.57619228 127.137964,5 125.032134,5 C124.394843,5 123.787166,5.14576883 123.238195,5.40683403 L115,9.35845232 L120.792938,9.35845232 L120.792938,29 L129.273235,29 L129.273235,11.5435591 C129.273235,10.3390952 130.222417,9.35863052 131.396383,9.35863052 C132.567231,9.35863052 133.514335,10.3390952 133.514335,11.5435591 L133.514335,29 L142,29 L142,9.35845232 C142,6.94970263 140.098518,5 137.760631,5" id="Fill-10"></path>
                    <path d="M23.7491091,27.091125 C16.9863818,27.091125 11.5056545,21.7054107 11.5056545,15.0621964 C11.5056545,8.418625 16.9863818,3.03808929 23.7491091,3.03808929 C26.1327455,3.03808929 28.3582,3.70576786 30.2382,4.86308929 L23.7491091,15.0621964 L35.9654727,8.13433929 C34.6382,6.057375 32.7345636,4.26773214 30.4327455,2.90951786 C27.5036545,1.187375 23.4291091,0.121482143 18.9236545,0.121482143 C12.4967455,0.121482143 6.85838182,2.41523214 3.71401818,5.85023214 C1.38601818,8.38951786 1.81818182e-05,11.5854107 1.81818182e-05,15.0620179 C1.81818182e-05,18.541125 1.38601818,21.7391607 3.71401818,24.2804107 C6.86656364,27.7196964 12.4209273,30.0000536 18.7418364,30.0000536 C25.0618364,30.0000536 30.6145636,27.7179107 33.7691091,24.2804107 C33.9418364,24.091125 34.1091091,23.9000536 34.2672909,23.7018393 L33.7909273,21.9482679 C31.5745636,25.0554107 27.9036545,27.091125 23.7491091,27.091125" id="Fill-1"></path>
                </g>
            </g>
        </g>
    </g>
</svg>