<svg width="158" height="53" viewBox="0 0 158 53" fill="none" xmlns="http://www.w3.org/2000/svg">
<g clip-path="url(#clip0_336_2)">
<path d="M157.902 12.6186C160.054 25.08 126.476 41.3994 82.8938 49.068C39.3172 56.7367 2.24621 52.8454 0.0973183 40.3787C-2.04984 27.9156 31.5374 11.6015 75.1141 3.93461C118.692 -3.73756 155.756 0.153767 157.902 12.6186Z" fill="#034EA2"/>
<path d="M116.887 31.1177L116.663 18.16H120.708V34.4917H114.893L110.857 21.0886H110.771L110.994 34.4917H106.976V18.16H113.043L116.797 31.1177H116.887Z" fill="white"/>
<path d="M43.3721 19.6892L41.1347 34.6635H36.7241L39.753 18.16H47.0189L50.034 34.6635H45.6407L43.4641 19.6892H43.3721Z" fill="white"/>
<path d="M60.3063 34.6635L57.5742 19.826H57.4857L57.3832 34.6635H53.292L53.6531 18.16H60.3184L62.3354 30.7757H62.4222L64.4409 18.16H71.1028L71.4569 34.6635H67.3744L67.2668 19.826H67.1817L64.4513 34.6635H60.3063Z" fill="white"/>
<path d="M29.8452 30.0077C30.0049 30.4075 29.9563 30.9213 29.8816 31.2317C29.7445 31.7806 29.3765 32.34 28.2899 32.34C27.2658 32.34 26.6444 31.7473 26.6444 30.8406V29.2431H22.2633L22.2598 30.5215C22.2598 34.2006 25.1273 35.3107 28.1997 35.3107C31.1539 35.3107 33.5875 34.2901 33.9746 31.5403C34.1725 30.1146 34.0249 29.1817 33.9572 28.8292C33.2681 25.3746 27.0679 24.3434 26.6062 22.4109C26.5281 22.0795 26.5507 21.7287 26.5889 21.5411C26.7017 21.015 27.0592 20.4346 28.0816 20.4346C29.0363 20.4346 29.6004 21.0308 29.6004 21.9322C29.6004 22.2355 29.6004 22.951 29.6004 22.951H33.6743V21.7919C33.6743 18.1969 30.4805 17.6357 28.1667 17.6357C25.261 17.6357 22.8864 18.6055 22.4525 21.2921C22.3345 22.0339 22.3171 22.695 22.489 23.5227C23.2024 26.895 29.0051 27.8717 29.8452 30.0077Z" fill="white"/>
<path d="M82.9634 29.9779C83.1248 30.3742 83.0727 30.874 82.9998 31.1844C82.8662 31.7315 82.5017 32.2821 81.422 32.2821C80.4118 32.2821 79.7956 31.6894 79.7956 30.8038L79.7921 29.2203H75.4561L75.4509 30.4811C75.4509 34.1235 78.2924 35.223 81.3335 35.223C84.2565 35.223 86.6675 34.2164 87.0476 31.4912C87.2455 30.0761 87.1049 29.1554 87.0338 28.8099C86.3481 25.3868 80.2104 24.3662 79.7539 22.453C79.6758 22.1233 79.6984 21.7761 79.7383 21.599C79.8546 21.0694 80.2052 20.5029 81.2172 20.5029C82.1632 20.5029 82.7151 21.0851 82.7151 21.9795C82.7151 22.2794 82.7151 22.9878 82.7151 22.9878H86.7578V21.841C86.7578 18.2846 83.59 17.7269 81.2988 17.7269C78.426 17.7269 76.0706 18.6844 75.6453 21.3517C75.5273 22.083 75.5152 22.7318 75.6835 23.556C76.3865 26.8932 82.1319 27.863 82.9634 29.9779Z" fill="white"/>
<path d="M96.6847 32.1945C97.8181 32.1945 98.1722 31.4018 98.2504 30.9967C98.2833 30.8179 98.292 30.5794 98.2885 30.3654V18.1531H102.42V29.9919C102.428 30.2953 102.399 30.9196 102.385 31.0756C102.095 34.1568 99.6841 35.1564 96.6829 35.1564C93.6783 35.1564 91.2656 34.1568 90.9792 31.0756C90.9653 30.9196 90.9358 30.2953 90.9445 29.9919V18.1531H95.0721V30.3654C95.0721 30.5794 95.0791 30.8196 95.1103 30.9967C95.1989 31.4018 95.5425 32.1945 96.6847 32.1945Z" fill="white"/>
<path d="M130.761 32.0208C131.945 32.0208 132.358 31.265 132.435 30.8249C132.464 30.6355 132.473 30.4057 132.471 30.1971V27.8016H130.794V25.3921H136.587V29.8218C136.583 30.1304 136.576 30.3584 136.528 30.909C136.255 33.9113 133.678 34.9827 130.782 34.9827C127.882 34.9827 125.308 33.9113 125.032 30.909C124.985 30.3584 124.978 30.1304 124.973 29.8218L124.976 22.8721C124.976 22.5793 125.013 22.0602 125.044 21.7849C125.407 18.7002 127.882 17.7076 130.782 17.7076C133.679 17.7076 136.215 18.6949 136.516 21.7849C136.569 22.3109 136.552 22.8721 136.552 22.8721V23.4228H132.433V22.4986C132.436 22.5003 132.428 22.1058 132.379 21.8708C132.31 21.506 131.996 20.6678 130.751 20.6678C129.56 20.6678 129.211 21.4604 129.125 21.8708C129.074 22.0882 129.055 22.3828 129.055 22.6494V30.1971C129.052 30.4057 129.064 30.6355 129.097 30.8249C129.168 31.2668 129.579 32.0208 130.761 32.0208Z" fill="white"/>
</g>
<defs>
<clipPath id="clip0_336_2">
<rect width="158" height="53" fill="white"/>
</clipPath>
</defs>
</svg>
