<svg width="14" height="15" viewBox="0 0 14 15" fill="none" xmlns="http://www.w3.org/2000/svg">
<path d="M12.25 12.75L8.75 9.25M5.83334 2.25C5.02573 2.25 4.23626 2.48948 3.56476 2.93817C2.89326 3.38685 2.36988 4.02458 2.06083 4.77071C1.75177 5.51684 1.67091 6.33786 1.82846 7.12995C1.98602 7.92204 2.37492 8.64962 2.94598 9.22069C3.51705 9.79175 4.24463 10.1807 5.03672 10.3382C5.82881 10.4958 6.64983 10.4149 7.39596 10.1058C8.14209 9.79678 8.77982 9.27341 9.2285 8.60191C9.67719 7.93041 9.91667 7.14094 9.91667 6.33333C9.91667 5.25037 9.48646 4.21175 8.72069 3.44598C7.95491 2.68021 6.9163 2.25 5.83334 2.25Z" stroke="white" stroke-opacity="0.61" stroke-linecap="round" stroke-linejoin="round"/>
</svg>
